<svg width="141" height="45" viewBox="0 0 141 45" fill="none" xmlns="http://www.w3.org/2000/svg">
<g clip-path="url(#clip0_162_2)">
<path d="M22.012 2.2718e-08C19.1214 -0.000131303 16.2591 0.569103 13.5884 1.6752C10.9178 2.7813 8.49124 4.4026 6.44723 6.44652C4.40321 8.49044 2.7818 10.917 1.67558 13.5875C0.569364 16.2581 -2.98318e-09 19.1204 0 22.011C0 24.9015 0.569331 27.7637 1.67549 30.4342C2.78164 33.1047 4.40296 35.5312 6.44687 37.5751C10.5747 41.703 16.1733 44.022 22.011 44.022C24.9015 44.0221 27.7638 43.4529 30.4343 42.3469C33.1049 41.2409 35.5314 39.6196 37.5754 37.5758C39.6194 35.532 41.2409 33.1056 42.3471 30.4352C43.4534 27.7647 44.0229 24.9025 44.023 22.012C44.0231 19.1214 43.4539 16.2591 42.3478 13.5884C41.2417 10.9178 39.6204 8.49124 37.5765 6.44723C35.5326 4.40321 33.106 2.7818 30.4355 1.67558C27.7649 0.569364 24.9026 1.97348e-08 22.012 2.2718e-08Z" fill="#112723"/>
<path d="M18.8221 28.344L19.3051 28.244C19.4387 28.2146 19.5582 28.1405 19.6439 28.034C19.7295 27.9274 19.7763 27.7947 19.7763 27.658C19.7763 27.5213 19.7295 27.3886 19.6439 27.282C19.5582 27.1755 19.4387 27.1014 19.3051 27.072L18.8221 26.972C18.2264 26.8505 17.6795 26.5565 17.2496 26.1266C16.8196 25.6966 16.5256 25.1498 16.4041 24.554L16.3041 24.071C16.2747 23.9374 16.2006 23.8179 16.0941 23.7322C15.9875 23.6466 15.8549 23.5999 15.7181 23.5999C15.5814 23.5999 15.4487 23.6466 15.3422 23.7322C15.2356 23.8179 15.1615 23.9374 15.1321 24.071L15.0321 24.554C14.9121 25.1493 14.6197 25.6962 14.1911 26.1265C13.7626 26.5568 13.2169 26.8516 12.6221 26.974L12.1391 27.074C12.0056 27.1034 11.886 27.1775 11.8004 27.284C11.7147 27.3906 11.668 27.5233 11.668 27.66C11.668 27.7967 11.7147 27.9294 11.8004 28.036C11.886 28.1425 12.0056 28.2166 12.1391 28.246L12.6221 28.346C13.2181 28.4669 13.7653 28.7607 14.1954 29.1907C14.6254 29.6208 14.9192 30.168 15.0401 30.764L15.1401 31.247C15.1695 31.3805 15.2436 31.5001 15.3502 31.5857C15.4567 31.6714 15.5894 31.7181 15.7261 31.7181C15.8629 31.7181 15.9955 31.6714 16.1021 31.5857C16.2086 31.5001 16.2827 31.3805 16.3121 31.247L16.4121 30.764C16.5327 30.1689 16.8254 29.6224 17.2538 29.1922C17.6822 28.762 18.2276 28.467 18.8221 28.344Z" fill="white"/>
<path d="M30.5406 19.589L32.3196 19.228C32.4976 19.1921 32.6576 19.0958 32.7725 18.9553C32.8875 18.8149 32.9503 18.639 32.9503 18.4575C32.9503 18.276 32.8875 18.1001 32.7725 17.9596C32.6576 17.8192 32.4976 17.7228 32.3196 17.687L30.5406 17.326C29.6838 17.1519 28.8972 16.7293 28.279 16.1109C27.6608 15.4926 27.2385 14.7059 27.0646 13.849L26.7036 12.07C26.6678 11.8923 26.5716 11.7325 26.4313 11.6177C26.2911 11.5029 26.1154 11.4402 25.9341 11.4402C25.7529 11.4402 25.5772 11.5029 25.437 11.6177C25.2967 11.7325 25.2005 11.8923 25.1646 12.07L24.8036 13.849C24.6301 14.706 24.2078 15.4928 23.5896 16.1112C22.9713 16.7296 22.1846 17.1521 21.3276 17.326L19.5486 17.687C19.3707 17.7228 19.2107 17.8192 19.0957 17.9596C18.9808 18.1001 18.918 18.276 18.918 18.4575C18.918 18.639 18.9808 18.8149 19.0957 18.9553C19.2107 19.0958 19.3707 19.1921 19.5486 19.228L21.3276 19.589C22.1846 19.7628 22.9713 20.1853 23.5896 20.8037C24.2078 21.4221 24.6301 22.2089 24.8036 23.066L25.1646 24.845C25.2005 25.0226 25.2967 25.1824 25.437 25.2972C25.5772 25.412 25.7529 25.4747 25.9341 25.4747C26.1154 25.4747 26.2911 25.412 26.4313 25.2972C26.5716 25.1824 26.6678 25.0226 26.7036 24.845L27.0646 23.066C27.2385 22.2091 27.6608 21.4223 28.279 20.804C28.8972 20.1856 29.6838 19.763 30.5406 19.589Z" fill="white"/>
<path d="M58.4062 28.6851V16.4911H61.7422V18.2391C62.0504 17.6666 62.4927 17.1774 63.0312 16.8131C63.6685 16.3828 64.4257 16.1654 65.1943 16.1921C65.9805 16.145 66.7626 16.3375 67.4373 16.7441C67.968 17.1144 68.3734 17.6376 68.5993 18.2441C68.9305 17.6337 69.424 17.1267 70.0253 16.7791C70.716 16.3746 71.506 16.171 72.3063 16.1911C72.8584 16.1535 73.4122 16.2336 73.9311 16.426C74.4499 16.6183 74.9221 16.9187 75.3162 17.3071C76.0714 18.2436 76.4414 19.4325 76.3512 20.6321V28.6851H72.8063V21.5061C72.8612 20.8706 72.7217 20.2335 72.4062 19.6791C72.2496 19.4904 72.0494 19.3425 71.823 19.2483C71.5965 19.154 71.3506 19.1162 71.1063 19.1381C70.7591 19.1365 70.4191 19.2366 70.1283 19.4261C69.8203 19.6281 69.5737 19.9107 69.4153 20.2431C69.2295 20.6383 69.1387 21.0715 69.1503 21.5081V28.6851H65.6063V21.5061C65.6612 20.8706 65.5217 20.2335 65.2062 19.6791C65.0458 19.4889 64.8416 19.3403 64.6112 19.2461C64.3808 19.1519 64.1311 19.1148 63.8832 19.1381C63.5397 19.1355 63.2033 19.2358 62.9172 19.4261C62.6152 19.6311 62.3735 19.9132 62.2172 20.2431C62.0315 20.6383 61.9407 21.0715 61.9523 21.5081V28.6851H58.4062ZM82.1063 28.9791C81.3275 29.0037 80.555 28.8318 79.8603 28.4791C79.2622 28.1639 78.7704 27.6794 78.4463 27.0861C78.1203 26.4819 77.9538 25.8046 77.9622 25.1181C77.9291 24.6002 78.0121 24.0815 78.2052 23.5998C78.3983 23.1182 78.6966 22.6857 79.0783 22.3341C80.0499 21.6187 81.2462 21.2759 82.4493 21.3681H85.9002V20.8621C85.9328 20.5865 85.9032 20.307 85.8136 20.0443C85.7239 19.7816 85.5766 19.5423 85.3822 19.3441C84.9644 19.0456 84.4568 18.8995 83.9443 18.9301C83.4988 18.8994 83.0534 18.991 82.6562 19.1951C82.5153 19.2908 82.3997 19.4194 82.3195 19.5697C82.2394 19.7201 82.1971 19.8877 82.1963 20.0581H78.6532C78.6906 19.3447 78.9338 18.6574 79.3533 18.0791C79.8211 17.461 80.4501 16.9835 81.1713 16.6991C82.0898 16.3382 83.0717 16.1661 84.0583 16.1931C85.0236 16.174 85.9839 16.3379 86.8883 16.6761C87.6731 16.9743 88.3399 17.5193 88.7882 18.2291C89.2805 19.1005 89.5159 20.0935 89.4673 21.0931V25.5791C89.4673 26.2231 89.4826 26.7868 89.5133 27.2701C89.5439 27.7534 89.5899 28.2251 89.6513 28.6851H86.2682C86.2529 28.4244 86.2336 28.1944 86.2103 27.9951C86.1849 27.7506 86.1732 27.5049 86.1753 27.2591C85.7676 27.7819 85.2442 28.2029 84.6462 28.4891C83.849 28.847 82.9794 29.0148 82.1063 28.9791ZM83.2542 26.4791C83.7213 26.4873 84.1845 26.3931 84.6112 26.2031C85.0033 26.0249 85.3321 25.732 85.5543 25.3631C85.7882 24.9762 85.9082 24.5312 85.9002 24.0791V23.5791H83.1392C82.9273 23.5618 82.7141 23.5898 82.5137 23.6611C82.3134 23.7325 82.1305 23.8457 81.9773 23.9931C81.7332 24.2463 81.5969 24.5844 81.5972 24.9361C81.5787 25.3427 81.7144 25.7413 81.9773 26.0521C82.1478 26.2095 82.3499 26.3289 82.57 26.4025C82.7901 26.4761 83.0233 26.5022 83.2542 26.4791ZM96.9442 33.5851C95.8705 33.6234 94.7987 33.4675 93.7802 33.1251C93.0706 32.8821 92.4629 32.4082 92.0542 31.7791C91.6825 31.1529 91.4655 30.447 91.4212 29.7201H95.0332C95.1284 30.0246 95.308 30.2957 95.5512 30.5021C95.9559 30.7882 96.4501 30.9189 96.9432 30.8701C97.6918 30.9253 98.4341 30.6996 99.0252 30.2371C99.2783 29.9706 99.4716 29.6532 99.5923 29.3061C99.713 28.959 99.7583 28.5901 99.7253 28.2241V26.9131C99.3318 27.492 98.7982 27.9619 98.1742 28.2791C97.5654 28.5906 96.8911 28.7524 96.2072 28.7511C95.2381 28.7737 94.2807 28.5354 93.4352 28.0611C92.6297 27.5839 91.991 26.8697 91.6062 26.0161C91.1421 24.9347 90.9222 23.7642 90.9622 22.5881V22.1281C90.928 21.0092 91.1443 19.8967 91.5952 18.8721C91.979 18.0329 92.6143 17.3339 93.4132 16.8721C94.2702 16.4023 95.2363 16.168 96.2132 16.1931C97.0491 16.1629 97.8759 16.3747 98.5942 16.8031C99.1586 17.141 99.6409 17.6001 100.006 18.1471V16.4911H103.273V27.8791C103.333 28.6598 103.228 29.4443 102.964 30.1816C102.7 30.9188 102.284 31.5923 101.743 32.1581C100.381 33.2216 98.6666 33.7312 96.9442 33.5851ZM97.0592 25.8321C97.5343 25.8397 98.0028 25.7203 98.4162 25.4861C98.8221 25.2489 99.153 24.9024 99.3713 24.4861C99.6193 24.0068 99.7421 23.4726 99.7282 22.9331V21.7791C99.7464 21.2685 99.6228 20.7628 99.3713 20.3181C99.1433 19.9348 98.8124 19.623 98.4162 19.4181C97.9959 19.2058 97.5301 19.0991 97.0592 19.1071C96.7274 19.0965 96.3972 19.1579 96.0913 19.287C95.7854 19.4161 95.5111 19.6099 95.2872 19.8551C94.7798 20.4965 94.5334 21.3058 94.5972 22.1211V22.5811C94.5366 23.444 94.7847 24.3003 95.2972 24.9971C95.5076 25.2617 95.7758 25.4745 96.0813 25.6192C96.3867 25.764 96.7213 25.8368 97.0592 25.8321ZM105.572 28.6851V16.4911H109.115V28.6851H105.572ZM107.343 15.3401C106.785 15.3757 106.235 15.1895 105.813 14.8221C105.635 14.652 105.495 14.4463 105.402 14.2183C105.308 13.9903 105.264 13.7453 105.272 13.4991C105.264 13.2529 105.308 13.0079 105.402 12.7799C105.495 12.552 105.635 12.3462 105.813 12.1761C106.235 11.8087 106.785 11.6225 107.343 11.6581C107.902 11.6225 108.451 11.8087 108.873 12.1761C109.051 12.3462 109.192 12.552 109.285 12.7799C109.378 13.0079 109.422 13.2529 109.414 13.4991C109.422 13.7453 109.378 13.9903 109.285 14.2183C109.192 14.4463 109.051 14.652 108.873 14.8221C108.451 15.1895 107.902 15.3757 107.343 15.3401ZM117.167 28.9791C116.062 28.9995 114.966 28.7633 113.967 28.2891C113.035 27.8322 112.264 27.1017 111.758 26.1951C111.187 25.1193 110.91 23.9122 110.953 22.6951V22.2351C110.918 21.0813 111.209 19.9409 111.793 18.9451C112.334 18.0581 113.116 17.3438 114.048 16.8861C115.019 16.4127 116.087 16.1729 117.166 16.1861C118.229 16.1512 119.286 16.3681 120.249 16.8191C121.029 17.1973 121.689 17.7822 122.159 18.5101C122.604 19.2168 122.865 20.0237 122.918 20.8571H119.261C119.188 20.3729 118.958 19.9262 118.606 19.5851C118.2 19.2602 117.687 19.1 117.168 19.1361C116.704 19.129 116.247 19.2483 115.845 19.4811C115.443 19.7231 115.123 20.0797 114.925 20.5051C114.684 21.0513 114.569 21.6453 114.591 22.2421V22.7021C114.57 23.3389 114.68 23.9732 114.913 24.5661C115.091 25.0137 115.403 25.3954 115.806 25.6591C116.216 25.904 116.686 26.0278 117.163 26.0161C117.656 26.0314 118.139 25.8814 118.536 25.5901C118.932 25.2726 119.191 24.8157 119.261 24.3131H122.919C122.879 25.2022 122.592 26.0626 122.091 26.7981C121.59 27.512 120.902 28.0734 120.101 28.4201C119.174 28.8124 118.174 29.0029 117.167 28.9791ZM128.579 28.9101C127.795 28.9336 127.016 28.7636 126.313 28.4151C125.719 28.1112 125.227 27.6393 124.898 27.0581C124.572 26.4643 124.405 25.7958 124.414 25.1181C124.369 24.6271 124.442 24.1324 124.629 23.6759C124.815 23.2193 125.108 22.8143 125.484 22.4951C126.394 21.9027 127.472 21.6203 128.555 21.6901H132.512V20.8621C132.557 20.4725 132.518 20.0777 132.397 19.7046C132.276 19.3314 132.077 18.9885 131.812 18.6991C131.204 18.2561 130.458 18.0435 129.707 18.0991C129.033 18.0427 128.359 18.2172 127.797 18.5941C127.618 18.7268 127.466 18.8937 127.352 19.0853C127.237 19.2768 127.162 19.4892 127.13 19.7101H125.106C125.145 19.0694 125.378 18.4556 125.773 17.9501C126.207 17.4107 126.768 16.9882 127.406 16.7211C128.17 16.3998 128.994 16.243 129.822 16.2611C130.68 16.2412 131.533 16.3939 132.33 16.7101C133.012 16.9879 133.585 17.4791 133.964 18.1101C134.38 18.8822 134.579 19.7529 134.539 20.6291V25.5791C134.539 26.2231 134.543 26.7868 134.551 27.2701C134.557 27.7433 134.59 28.2158 134.651 28.6851H132.881C132.835 28.3324 132.805 27.9991 132.789 27.6851C132.774 27.3711 132.766 27.0144 132.766 26.6151C132.41 27.2951 131.87 27.8608 131.206 28.2471C130.411 28.7124 129.5 28.9439 128.579 28.9151V28.9101ZM129.016 27.0791C129.62 27.0871 130.22 26.9696 130.776 26.7341C131.285 26.5198 131.723 26.1675 132.041 25.7171C132.368 25.2347 132.533 24.6613 132.513 24.0791V23.2511H128.901C128.279 23.2166 127.66 23.3733 127.129 23.7001C126.91 23.862 126.736 24.0773 126.623 24.3255C126.51 24.5736 126.463 24.8465 126.485 25.1181C126.479 25.3818 126.53 25.6438 126.635 25.8856C126.741 26.1274 126.898 26.3433 127.095 26.5181C127.645 26.9354 128.329 27.1351 129.016 27.0791ZM138.106 28.6851V16.4911H140.131V28.6851H138.106ZM139.116 14.8791C138.933 14.8848 138.751 14.8531 138.581 14.7858C138.411 14.7186 138.257 14.6173 138.127 14.4881C137.998 14.3586 137.897 14.2041 137.83 14.034C137.762 13.8639 137.731 13.6819 137.736 13.4991C137.731 13.3163 137.762 13.1343 137.83 12.9642C137.897 12.7941 137.998 12.6396 138.127 12.5101C138.257 12.3809 138.411 12.2796 138.581 12.2124C138.751 12.1451 138.933 12.1134 139.116 12.1191C139.299 12.1134 139.481 12.1451 139.651 12.2124C139.821 12.2796 139.976 12.3809 140.105 12.5101C140.234 12.6396 140.336 12.7941 140.403 12.9642C140.47 13.1343 140.502 13.3163 140.496 13.4991C140.502 13.6819 140.47 13.8639 140.403 14.034C140.336 14.2041 140.234 14.3586 140.105 14.4881C139.976 14.6173 139.821 14.7186 139.651 14.7858C139.481 14.8531 139.299 14.8848 139.116 14.8791Z" fill="white"/>
</g>
<defs>
<clipPath id="clip0_162_2">
<rect width="140.495" height="44.023" fill="white"/>
</clipPath>
</defs>
</svg>
