<svg width="48" height="48" viewBox="0 0 48 48" fill="none" xmlns="http://www.w3.org/2000/svg">
<g clip-path="url(#clip0_33_86)">
<g clip-path="url(#clip1_33_86)">
<g clip-path="url(#clip2_33_86)">
<path d="M47.9002 12.4372C46.519 13.0738 44.1266 16.0393 44.1266 16.0393C43.798 15.954 43.4606 15.9074 43.1212 15.9008V6.92417C43.119 6.59703 43.0525 6.27352 42.9253 5.97212C42.7981 5.67071 42.6128 5.3973 42.38 5.16751C42.1471 4.93772 41.8713 4.75604 41.5682 4.63285C41.2652 4.50965 40.9408 4.44736 40.6137 4.44953H28.9863C28.92 3.9878 28.7907 3.53732 28.6022 3.11062C28.6022 3.11062 31.1603 0.281285 31.5619 -1.17155C31.5619 -1.17155 31.475 -2.20862 27.5511 3.19635V4.44953H9.68717C9.36003 4.44736 9.03567 4.50965 8.73261 4.63285C8.42955 4.75604 8.1537 4.93772 7.92085 5.16751C7.68801 5.3973 7.50273 5.67071 7.37555 5.97212C7.24836 6.27352 7.18178 6.59703 7.17963 6.92417V13.4014L5.27109 14.1437C5.27109 14.1437 5.05851 14.8942 7.17963 14.5196V23.4128C5.07143 25.8287 2.01189 29.385 1.69008 30.0498C1.19092 31.0692 0.642443 34.9932 0 35.8611C0 35.8611 1.10755 36.4307 2.58388 30.2377L7.17494 25.6384V37.4525C7.17709 37.7797 7.24367 38.1032 7.37085 38.4046C7.49803 38.706 7.68331 38.9794 7.91616 39.2092C8.149 39.439 8.42485 39.6207 8.72792 39.7439C9.03098 39.8671 9.35534 39.9293 9.68247 39.9272H27.1048L21.7679 46.1848C15.6606 48.2167 16.3348 49.2514 16.3348 49.2514C17.1487 48.5408 21.0573 47.6318 22.0427 47.0469C22.7944 46.6041 27.261 42.0389 29.3093 39.9272H37.8959C37.9329 39.9982 37.994 40.0537 38.0683 40.0837C38.1426 40.1136 38.2252 40.116 38.3011 40.0904L38.3364 39.9272H40.609C40.9361 39.9293 41.2605 39.8671 41.5635 39.7439C41.8666 39.6207 42.1424 39.439 42.3753 39.2092C42.6081 38.9794 42.7934 38.706 42.9206 38.4046C43.0478 38.1032 43.1143 37.7797 43.1165 37.4525V17.2643L44.2088 17.0764C48.9537 12.3479 47.9002 12.4372 47.9002 12.4372ZM32.7176 5.22469C34.1575 5.15422 34.8317 5.10724 34.9221 6.21008C33.658 6.037 32.3708 6.23148 31.2143 6.77031C31.226 6.37129 31.3869 5.99115 31.6652 5.70499C31.9435 5.41883 32.3191 5.24745 32.7176 5.22469ZM12.7244 31.6741C12.5097 31.4985 12.3046 31.3115 12.1101 31.1138C11.9927 30.8555 11.8893 30.6029 11.7824 30.3504C11.4962 29.8785 11.2999 29.3576 11.2034 28.8142C6.80144 15.8949 17.3342 12.6557 23.6717 11.379C24.0455 13.7224 25.1199 15.8978 26.7536 17.619L26.6044 17.5016L15.4468 34.285C14.4621 33.499 13.5508 32.6251 12.7244 31.6741ZM18.8317 36.7103C17.6977 35.9966 16.6063 35.2173 15.5631 34.3766L28.89 19.2833C31.1356 20.5317 33.6885 21.1196 36.254 20.9792C36.254 20.9792 36.2669 21.1942 36.2845 21.072C36.2787 27.3731 35.5704 40.9396 18.8317 36.7103ZM37.0961 20.0161C25.3994 20.251 24.4868 10.2022 24.4868 10.2022C26.1129 9.64224 27.8584 9.52356 29.5453 9.85821C31.2322 10.1929 32.8002 10.9689 34.0894 12.1072C38.0192 14.9565 37.0961 20.0161 37.0961 20.0161ZM38.5619 14.0592C38.0568 15.7892 39.9337 13.5142 30.9453 8.33942L31.0452 8.0963C32.0267 7.80397 33.0611 7.73378 34.0731 7.89081C35.0852 8.04784 36.0496 8.42816 36.8964 9.00418C37.7273 9.51344 38.3506 10.3009 38.6556 11.2264C38.9605 12.152 38.9273 13.1558 38.5619 14.0592ZM40.1145 13.0562C40.4157 11.832 40.3508 10.5464 39.9278 9.35887C41.0482 9.22381 41.1257 9.88504 41.3501 11.2921C41.4007 11.6872 41.3022 12.0869 41.0737 12.4132C40.8451 12.7395 40.5031 12.9687 40.1145 13.0562Z" fill="#808080"/>
</g>
</g>
</g>
<defs>
<clipPath id="clip0_33_86">
<rect width="48" height="48" fill="white"/>
</clipPath>
<clipPath id="clip1_33_86">
<rect width="48" height="48" fill="white"/>
</clipPath>
<clipPath id="clip2_33_86">
<rect width="48" height="50.5028" fill="white" transform="translate(0 -1.2514)"/>
</clipPath>
</defs>
</svg>
